<svg width="20" height="26" viewBox="0 0 20 26" fill="none" xmlns="http://www.w3.org/2000/svg">
<path d="M14.3435 5.91435C14.2673 5.92176 14.1949 5.95088 14.1348 5.99825C14.0747 6.04562 14.0294 6.10924 14.0044 6.18156C13.9795 6.25388 13.9758 6.33186 13.9938 6.40622C14.0118 6.48058 14.0509 6.54818 14.1062 6.60102L17.8214 10.3153L14.1062 14.0234C14.0677 14.06 14.0369 14.1039 14.0156 14.1526C13.9943 14.2013 13.9829 14.2537 13.9821 14.3068C13.9813 14.3599 13.9911 14.4126 14.0109 14.4619C14.0308 14.5112 14.0602 14.556 14.0976 14.5938C14.1349 14.6315 14.1795 14.6615 14.2285 14.6818C14.2776 14.7022 14.3302 14.7126 14.3834 14.7124C14.4365 14.7122 14.489 14.7014 14.5379 14.6806C14.5868 14.6598 14.6311 14.6295 14.6682 14.5915L18.6643 10.5963C18.7019 10.5591 18.7317 10.5149 18.752 10.4661C18.7724 10.4174 18.7829 10.365 18.7829 10.3122C18.7829 10.2594 18.7724 10.2071 18.752 10.1583C18.7317 10.1096 18.7019 10.0653 18.6643 10.0282L14.6682 6.03295C14.6264 5.99015 14.5755 5.95727 14.5193 5.93674C14.4631 5.91621 14.403 5.90856 14.3435 5.91435ZM1.5621 9.91582C1.45651 9.92132 1.35738 9.96839 1.2864 10.0467C1.21542 10.1251 1.17835 10.2284 1.1833 10.334C1.18825 10.4396 1.23482 10.5389 1.31282 10.6103C1.39082 10.6817 1.49392 10.7193 1.59957 10.7149H16.3852C16.4382 10.7156 16.4908 10.7059 16.54 10.6861C16.5891 10.6664 16.6339 10.6371 16.6716 10.5999C16.7093 10.5627 16.7393 10.5184 16.7598 10.4696C16.7802 10.4207 16.7907 10.3683 16.7907 10.3153C16.7907 10.2624 16.7802 10.2099 16.7598 10.1611C16.7393 10.1122 16.7093 10.0679 16.6716 10.0307C16.6339 9.99357 16.5891 9.96427 16.54 9.94454C16.4908 9.92481 16.4382 9.91504 16.3852 9.91582H1.59957C1.58708 9.91523 1.57458 9.91523 1.5621 9.91582Z" fill="#0D4EA4"/>
</svg>
