<svg width="20" height="22" viewBox="0 0 20 22" fill="none" xmlns="http://www.w3.org/2000/svg">
<path d="M19.3293 5.75146C18.8059 6.51709 18.1731 7.16943 17.4309 7.7085C17.4387 7.81787 17.4426 7.98193 17.4426 8.20068C17.4426 9.21631 17.2942 10.23 16.9973 11.2417C16.7004 12.2534 16.2493 13.2241 15.6438 14.1538C15.0383 15.0835 14.3176 15.9058 13.4817 16.6206C12.6458 17.3354 11.6379 17.9058 10.4583 18.3315C9.27856 18.7573 8.01685 18.9702 6.6731 18.9702C4.55591 18.9702 2.61841 18.4038 0.860596 17.271C1.13403 17.3022 1.43872 17.3179 1.77466 17.3179C3.53247 17.3179 5.09888 16.7788 6.47388 15.7007C5.65356 15.6851 4.91919 15.4331 4.27075 14.9448C3.62231 14.4565 3.177 13.8335 2.93481 13.0757C3.19263 13.1147 3.43091 13.1343 3.64966 13.1343C3.9856 13.1343 4.31763 13.0913 4.64575 13.0054C3.77075 12.8257 3.04614 12.3901 2.47192 11.6987C1.89771 11.0073 1.6106 10.2046 1.6106 9.29053V9.24365C2.14185 9.54053 2.71216 9.70068 3.32153 9.72412C2.80591 9.38037 2.39575 8.93115 2.09106 8.37646C1.78638 7.82178 1.63403 7.22021 1.63403 6.57178C1.63403 5.88428 1.80591 5.24756 2.14966 4.66162C3.09497 5.82568 4.24536 6.75732 5.60083 7.45654C6.9563 8.15576 8.40747 8.54443 9.95435 8.62256C9.89185 8.32568 9.8606 8.03662 9.8606 7.75537C9.8606 6.7085 10.2297 5.81592 10.968 5.07764C11.7063 4.33936 12.5989 3.97021 13.6458 3.97021C14.7395 3.97021 15.6614 4.36865 16.4114 5.16553C17.2629 5.00146 18.0637 4.69678 18.8137 4.25146C18.5247 5.1499 17.97 5.84521 17.1497 6.3374C17.8762 6.25928 18.6028 6.06396 19.3293 5.75146Z" fill="white"/>
</svg>
