<svg width="20" height="22" viewBox="0 0 20 22" fill="none" xmlns="http://www.w3.org/2000/svg">
<path d="M12.4289 15.5483V18.021C12.4289 18.5444 12.2766 18.8062 11.9719 18.8062C11.7922 18.8062 11.6164 18.7202 11.4445 18.5483V15.021C11.6164 14.8491 11.7922 14.7632 11.9719 14.7632C12.2766 14.7632 12.4289 15.0249 12.4289 15.5483ZM16.3898 15.5601V16.0991H15.3351V15.5601C15.3351 15.0288 15.5109 14.7632 15.8625 14.7632C16.2141 14.7632 16.3898 15.0288 16.3898 15.5601ZM5.06952 13.0054H6.32343V11.9038H2.66718V13.0054H3.89764V19.6733H5.06952V13.0054ZM8.44452 19.6733H9.48749V13.8843H8.44452V18.314C8.21014 18.6421 7.98749 18.8062 7.77655 18.8062C7.63593 18.8062 7.55389 18.7241 7.53046 18.5601C7.52264 18.5366 7.51874 18.3999 7.51874 18.1499V13.8843H6.47577V18.4663C6.47577 18.8491 6.50702 19.1343 6.56952 19.3218C6.66327 19.6108 6.88983 19.7554 7.24921 19.7554C7.62421 19.7554 8.02264 19.5171 8.44452 19.0405V19.6733ZM13.4719 17.939V15.6304C13.4719 15.0601 13.4367 14.6733 13.3664 14.4702C13.2336 14.0327 12.9562 13.814 12.5344 13.814C12.1437 13.814 11.7805 14.0249 11.4445 14.4468V11.9038H10.4016V19.6733H11.4445V19.1108C11.7961 19.5405 12.1594 19.7554 12.5344 19.7554C12.9562 19.7554 13.2336 19.5405 13.3664 19.1108C13.4367 18.8999 13.4719 18.5093 13.4719 17.939ZM17.4328 17.8218V17.6694H16.3664C16.3664 18.0679 16.3586 18.3062 16.343 18.3843C16.2883 18.6655 16.132 18.8062 15.8742 18.8062C15.5148 18.8062 15.3351 18.5366 15.3351 17.9976V16.978H17.4328V15.771C17.4328 15.1538 17.3273 14.7007 17.1164 14.4116C16.8117 14.0132 16.3976 13.814 15.8742 13.814C15.343 13.814 14.925 14.0132 14.6203 14.4116C14.4016 14.7007 14.2922 15.1538 14.2922 15.771V17.7983C14.2922 18.4155 14.4055 18.8687 14.632 19.1577C14.9367 19.5562 15.3586 19.7554 15.8976 19.7554C16.4601 19.7554 16.882 19.5483 17.1633 19.1343C17.3039 18.9233 17.3859 18.7124 17.4094 18.5015C17.425 18.4312 17.4328 18.2046 17.4328 17.8218ZM10.3078 7.12256V4.66162C10.3078 4.12256 10.1398 3.85303 9.80389 3.85303C9.46796 3.85303 9.29999 4.12256 9.29999 4.66162V7.12256C9.29999 7.66943 9.46796 7.94287 9.80389 7.94287C10.1398 7.94287 10.3078 7.66943 10.3078 7.12256ZM18.7336 15.9233C18.7336 17.7515 18.632 19.1187 18.4289 20.0249C18.3195 20.4858 18.093 20.8726 17.7492 21.1851C17.4055 21.4976 17.007 21.6772 16.5539 21.7241C15.1164 21.8882 12.9484 21.9702 10.05 21.9702C7.15155 21.9702 4.98358 21.8882 3.54608 21.7241C3.09296 21.6772 2.69257 21.4976 2.34491 21.1851C1.99725 20.8726 1.77264 20.4858 1.67108 20.0249C1.46796 19.1499 1.36639 17.7827 1.36639 15.9233C1.36639 14.0952 1.46796 12.728 1.67108 11.8218C1.78046 11.3608 2.00702 10.9741 2.35077 10.6616C2.69452 10.3491 3.09686 10.1655 3.5578 10.1108C4.98749 9.95459 7.15155 9.87646 10.05 9.87646C12.9484 9.87646 15.1164 9.95459 16.5539 10.1108C17.007 10.1655 17.4074 10.3491 17.7551 10.6616C18.1027 10.9741 18.3273 11.3608 18.4289 11.8218C18.632 12.6968 18.7336 14.064 18.7336 15.9233ZM7.03827 0.970215H8.23358L6.81561 5.646V8.82178H5.64374V5.646C5.53436 5.06787 5.29608 4.23975 4.92889 3.16162C4.63983 2.35693 4.38593 1.62646 4.16718 0.970215H5.40936L6.24139 4.05225L7.03827 0.970215ZM11.3742 4.87256V6.92334C11.3742 7.55615 11.2648 8.01709 11.0461 8.30615C10.7492 8.70459 10.3351 8.90381 9.80389 8.90381C9.28046 8.90381 8.8703 8.70459 8.57343 8.30615C8.35468 8.00928 8.2453 7.54834 8.2453 6.92334V4.87256C8.2453 4.24756 8.35468 3.79053 8.57343 3.50146C8.8703 3.10303 9.28046 2.90381 9.80389 2.90381C10.3351 2.90381 10.7492 3.10303 11.0461 3.50146C11.2648 3.79053 11.3742 4.24756 11.3742 4.87256ZM15.3 2.97412V8.82178H14.2336V8.17725C13.8195 8.66162 13.4172 8.90381 13.0266 8.90381C12.6672 8.90381 12.4367 8.75928 12.3351 8.47021C12.2726 8.28271 12.2414 7.98975 12.2414 7.59131V2.97412H13.3078V7.2749C13.3078 7.53271 13.3117 7.66943 13.3195 7.68506C13.343 7.85693 13.425 7.94287 13.5656 7.94287C13.7766 7.94287 13.9992 7.7749 14.2336 7.43896V2.97412H15.3Z" fill="white"/>
</svg>
