<svg width="11" height="11" viewBox="0 0 11 11" fill="none" xmlns="http://www.w3.org/2000/svg">
<path d="M10.2172 8.4955C10.2172 8.62608 10.193 8.79656 10.1446 9.00694C10.0962 9.21732 10.0455 9.38296 9.99227 9.50387C9.8907 9.74569 9.59569 10.002 9.10722 10.2728C8.65261 10.5195 8.20283 10.6428 7.75789 10.6428C7.62731 10.6428 7.49915 10.6344 7.3734 10.6174C7.24766 10.6005 7.10862 10.5703 6.95627 10.5268C6.80393 10.4832 6.69028 10.4482 6.61531 10.4216C6.54035 10.395 6.40614 10.3454 6.21269 10.2728C6.01924 10.2003 5.90075 10.1568 5.85722 10.1423C5.38326 9.97299 4.96009 9.77229 4.58769 9.54014C3.97348 9.15808 3.33509 8.63575 2.67251 7.97318C2.00994 7.3106 1.48762 6.67221 1.10555 6.058C0.873404 5.68561 0.672698 5.26243 0.503427 4.78847C0.488918 4.74494 0.445391 4.62645 0.372846 4.433C0.300302 4.23955 0.25073 4.10534 0.22413 4.03038C0.19753 3.95542 0.162467 3.84176 0.11894 3.68942C0.0754133 3.53707 0.0451864 3.39803 0.0282593 3.27229C0.0113322 3.14654 0.00286865 3.01838 0.00286865 2.8878C0.00286865 2.44286 0.126195 1.99308 0.372846 1.53847C0.64368 1.05 0.900004 0.754987 1.14182 0.653424C1.26273 0.600225 1.42837 0.549444 1.63875 0.501081C1.84913 0.452718 2.01961 0.428536 2.15019 0.428536C2.2179 0.428536 2.26868 0.435791 2.30253 0.450299C2.38959 0.479318 2.51775 0.663097 2.68702 1.00164C2.74022 1.09353 2.81276 1.22411 2.90465 1.39338C2.99654 1.56265 3.08118 1.7162 3.15856 1.85404C3.23594 1.99187 3.3109 2.12124 3.38345 2.24215C3.39796 2.2615 3.44028 2.32195 3.5104 2.42351C3.58053 2.52508 3.63252 2.61092 3.66637 2.68105C3.70023 2.75117 3.71715 2.82009 3.71715 2.8878C3.71715 2.98453 3.64824 3.10543 3.5104 3.25052C3.37257 3.39561 3.22264 3.52861 3.06063 3.64952C2.89861 3.77043 2.74868 3.89859 2.61085 4.03401C2.47301 4.16942 2.4041 4.28066 2.4041 4.36771C2.4041 4.41124 2.41619 4.46565 2.44037 4.53094C2.46455 4.59623 2.4851 4.6458 2.50203 4.67965C2.51896 4.71351 2.55281 4.77154 2.60359 4.85376C2.65438 4.93598 2.68218 4.98192 2.68702 4.99159C3.05458 5.65417 3.47534 6.22243 3.9493 6.69639C4.42326 7.17035 4.99152 7.59111 5.6541 7.95867C5.66377 7.96351 5.70971 7.99132 5.79193 8.0421C5.87415 8.09288 5.93218 8.12673 5.96604 8.14366C5.99989 8.16059 6.04946 8.18114 6.11476 8.20532C6.18005 8.2295 6.23445 8.24159 6.27798 8.24159C6.36503 8.24159 6.47627 8.17268 6.61169 8.03484C6.7471 7.89701 6.87526 7.74708 6.99617 7.58507C7.11708 7.42305 7.25008 7.27312 7.39517 7.13529C7.54026 6.99745 7.66117 6.92854 7.75789 6.92854C7.8256 6.92854 7.89452 6.94546 7.96464 6.97932C8.03477 7.01317 8.12061 7.06516 8.22218 7.13529C8.32374 7.20542 8.38419 7.24773 8.40354 7.26224C8.52445 7.33479 8.65382 7.40975 8.79165 7.48713C8.92949 7.56451 9.08304 7.64915 9.25231 7.74104C9.42158 7.83293 9.55216 7.90547 9.64405 7.95867C9.98259 8.12794 10.1664 8.2561 10.1954 8.34316C10.2099 8.37701 10.2172 8.42779 10.2172 8.4955Z" fill="#0D4EA4"/>
</svg>
