<svg width="19" height="22" viewBox="0 0 19 22" fill="none" xmlns="http://www.w3.org/2000/svg">
<path d="M15.113 2.47021C16.0432 2.47021 16.8385 2.80029 17.4991 3.46045C18.1596 4.12061 18.4898 4.91553 18.4898 5.84521V17.0952C18.4898 18.0249 18.1596 18.8198 17.4991 19.48C16.8385 20.1401 16.0432 20.4702 15.113 20.4702H12.9087V13.4976H15.242L15.5937 10.7788H12.9087V9.04443C12.9087 8.60693 13.0005 8.27881 13.1842 8.06006C13.3679 7.84131 13.7255 7.73193 14.257 7.73193L15.6875 7.72021V5.29443C15.1951 5.22412 14.4994 5.18896 13.6004 5.18896C12.5374 5.18896 11.6873 5.50146 11.0502 6.12646C10.4131 6.75146 10.0946 7.63428 10.0946 8.7749V10.7788H7.74958V13.4976H10.0946V20.4702H3.85683C2.92663 20.4702 2.13127 20.1401 1.47076 19.48C0.810239 18.8198 0.47998 18.0249 0.47998 17.0952V5.84521C0.47998 4.91553 0.810239 4.12061 1.47076 3.46045C2.13127 2.80029 2.92663 2.47021 3.85683 2.47021H15.113Z" fill="white"/>
</svg>
