<svg width="19" height="22" viewBox="0 0 19 22" fill="none" xmlns="http://www.w3.org/2000/svg">
<path d="M11.8911 13.5913C11.8911 13.5913 12.0375 13.4448 12.3305 13.1519C12.6235 12.8589 12.77 12.2983 12.77 11.4702C12.77 10.6421 12.477 9.93506 11.8911 9.34912C11.3051 8.76318 10.5981 8.47021 9.76996 8.47021C8.94183 8.47021 8.2348 8.76318 7.64886 9.34912C7.06293 9.93506 6.76996 10.6421 6.76996 11.4702C6.76996 12.2983 7.06293 13.0054 7.64886 13.5913C8.2348 14.1772 8.94183 14.4702 9.76996 14.4702C10.5981 14.4702 11.3051 14.1772 11.8911 13.5913ZM13.0395 8.20068C13.0395 8.20068 13.2641 8.42529 13.7133 8.87451C14.1625 9.32373 14.3871 10.189 14.3871 11.4702C14.3871 12.7515 13.9379 13.8413 13.0395 14.7397C12.1411 15.6382 11.0512 16.0874 9.76996 16.0874C8.48871 16.0874 7.39886 15.6382 6.50043 14.7397C5.60199 13.8413 5.15277 12.7515 5.15277 11.4702C5.15277 10.189 5.60199 9.09912 6.50043 8.20068C7.39886 7.30225 8.48871 6.85303 9.76996 6.85303C11.0512 6.85303 12.1411 7.30225 13.0395 8.20068ZM15.3364 5.90381C15.3364 5.90381 15.3891 5.95654 15.4946 6.06201C15.6 6.16748 15.6528 6.36865 15.6528 6.66553C15.6528 6.9624 15.5473 7.21631 15.3364 7.42725C15.1254 7.63818 14.8715 7.74365 14.5746 7.74365C14.2778 7.74365 14.0239 7.63818 13.8129 7.42725C13.602 7.21631 13.4965 6.9624 13.4965 6.66553C13.4965 6.36865 13.602 6.11475 13.8129 5.90381C14.0239 5.69287 14.2778 5.5874 14.5746 5.5874C14.8715 5.5874 15.1254 5.69287 15.3364 5.90381ZM10.6664 4.08154C10.6664 4.08154 10.5307 4.08252 10.2592 4.08447C9.98773 4.08643 9.82465 4.0874 9.76996 4.0874C9.71527 4.0874 9.41644 4.08545 8.87347 4.08154C8.33051 4.07764 7.9184 4.07764 7.63715 4.08154C7.3559 4.08545 6.97894 4.09717 6.50629 4.1167C6.03363 4.13623 5.63129 4.17529 5.29926 4.23389C4.96722 4.29248 4.68793 4.36475 4.46136 4.45068C4.07074 4.60693 3.72699 4.8335 3.43011 5.13037C3.13324 5.42725 2.90668 5.771 2.75043 6.16162C2.66449 6.38818 2.59222 6.66748 2.53363 6.99951C2.47504 7.33154 2.43597 7.73389 2.41644 8.20654C2.39691 8.6792 2.38519 9.05615 2.38129 9.3374C2.37738 9.61865 2.37738 10.0308 2.38129 10.5737C2.38519 11.1167 2.38715 11.4155 2.38715 11.4702C2.38715 11.5249 2.38519 11.8237 2.38129 12.3667C2.37738 12.9097 2.37738 13.3218 2.38129 13.603C2.38519 13.8843 2.39691 14.2612 2.41644 14.7339C2.43597 15.2065 2.47504 15.6089 2.53363 15.9409C2.59222 16.2729 2.66449 16.5522 2.75043 16.7788C2.90668 17.1694 3.13324 17.5132 3.43011 17.8101C3.72699 18.1069 4.07074 18.3335 4.46136 18.4897C4.68793 18.5757 4.96722 18.6479 5.29926 18.7065C5.63129 18.7651 6.03363 18.8042 6.50629 18.8237C6.97894 18.8433 7.3559 18.855 7.63715 18.8589C7.9184 18.8628 8.33051 18.8628 8.87347 18.8589C9.41644 18.855 9.71527 18.853 9.76996 18.853C9.82465 18.853 10.1235 18.855 10.6664 18.8589C11.2094 18.8628 11.6215 18.8628 11.9028 18.8589C12.184 18.855 12.561 18.8433 13.0336 18.8237C13.5063 18.8042 13.9086 18.7651 14.2407 18.7065C14.5727 18.6479 14.852 18.5757 15.0786 18.4897C15.4692 18.3335 15.8129 18.1069 16.1098 17.8101C16.4067 17.5132 16.6332 17.1694 16.7895 16.7788C16.8754 16.5522 16.9477 16.2729 17.0063 15.9409C17.0649 15.6089 17.1039 15.2065 17.1235 14.7339C17.143 14.2612 17.1547 13.8843 17.1586 13.603C17.1625 13.3218 17.1625 12.9097 17.1586 12.3667C17.1547 11.8237 17.1528 11.5249 17.1528 11.4702C17.1528 11.4155 17.1547 11.1167 17.1586 10.5737C17.1625 10.0308 17.1625 9.61865 17.1586 9.3374C17.1547 9.05615 17.143 8.6792 17.1235 8.20654C17.1039 7.73389 17.0649 7.33154 17.0063 6.99951C16.9477 6.66748 16.8754 6.38818 16.7895 6.16162C16.6332 5.771 16.4067 5.42725 16.1098 5.13037C15.8129 4.8335 15.4692 4.60693 15.0786 4.45068C14.852 4.36475 14.5727 4.29248 14.2407 4.23389C13.9086 4.17529 13.5063 4.13623 13.0336 4.1167C12.561 4.09717 12.184 4.08545 11.9028 4.08154C11.6215 4.07764 11.2094 4.07764 10.6664 4.08154ZM18.7114 7.75537C18.7504 8.44287 18.77 9.68115 18.77 11.4702C18.77 13.2593 18.7504 14.4976 18.7114 15.1851C18.6332 16.8101 18.1489 18.0679 17.2582 18.9585C16.3676 19.8491 15.1098 20.3335 13.4848 20.4116C12.7973 20.4507 11.559 20.4702 9.76996 20.4702C7.9809 20.4702 6.74261 20.4507 6.05511 20.4116C4.43011 20.3335 3.1723 19.8491 2.28168 18.9585C1.39105 18.0679 0.906677 16.8101 0.828552 15.1851C0.78949 14.4976 0.769958 13.2593 0.769958 11.4702C0.769958 9.68115 0.78949 8.44287 0.828552 7.75537C0.906677 6.13037 1.39105 4.87256 2.28168 3.98193C3.1723 3.09131 4.43011 2.60693 6.05511 2.52881C6.74261 2.48975 7.9809 2.47021 9.76996 2.47021C11.559 2.47021 12.7973 2.48975 13.4848 2.52881C15.1098 2.60693 16.3676 3.09131 17.2582 3.98193C18.1489 4.87256 18.6332 6.13037 18.7114 7.75537Z" fill="white"/>
</svg>
